<svg width="47" height="47" viewBox="0 0 47 47" fill="none" xmlns="http://www.w3.org/2000/svg">
<path d="M15.275 3.91699H31.725C37.9917 3.91699 43.0834 9.00866 43.0834 15.2753V31.7253C43.0834 34.7377 41.8867 37.6268 39.7566 39.7569C37.6265 41.887 34.7374 43.0837 31.725 43.0837H15.275C9.00835 43.0837 3.91669 37.992 3.91669 31.7253V15.2753C3.91669 12.2629 5.11337 9.37387 7.24347 7.24377C9.37357 5.11367 12.2626 3.91699 15.275 3.91699ZM14.8834 7.83366C13.0136 7.83366 11.2204 8.57643 9.89825 9.89856C8.57612 11.2207 7.83335 13.0139 7.83335 14.8837V32.117C7.83335 36.0141 10.9863 39.167 14.8834 39.167H32.1167C33.9865 39.167 35.7797 38.4242 37.1018 37.1021C38.4239 35.78 39.1667 33.9868 39.1667 32.117V14.8837C39.1667 10.9866 36.0138 7.83366 32.1167 7.83366H14.8834ZM33.7813 10.7712C34.4305 10.7712 35.0531 11.0291 35.5122 11.4881C35.9713 11.9472 36.2292 12.5698 36.2292 13.2191C36.2292 13.8683 35.9713 14.4909 35.5122 14.95C35.0531 15.4091 34.4305 15.667 33.7813 15.667C33.132 15.667 32.5094 15.4091 32.0503 14.95C31.5913 14.4909 31.3334 13.8683 31.3334 13.2191C31.3334 12.5698 31.5913 11.9472 32.0503 11.4881C32.5094 11.0291 33.132 10.7712 33.7813 10.7712ZM23.5 13.7087C26.0969 13.7087 28.5875 14.7403 30.4238 16.5766C32.2601 18.4129 33.2917 20.9034 33.2917 23.5003C33.2917 26.0972 32.2601 28.5878 30.4238 30.4241C28.5875 32.2604 26.0969 33.292 23.5 33.292C20.9031 33.292 18.4126 32.2604 16.5763 30.4241C14.74 28.5878 13.7084 26.0972 13.7084 23.5003C13.7084 20.9034 14.74 18.4129 16.5763 16.5766C18.4126 14.7403 20.9031 13.7087 23.5 13.7087ZM23.5 17.6253C21.9419 17.6253 20.4475 18.2443 19.3458 19.3461C18.244 20.4478 17.625 21.9422 17.625 23.5003C17.625 25.0585 18.244 26.5528 19.3458 27.6546C20.4475 28.7564 21.9419 29.3753 23.5 29.3753C25.0582 29.3753 26.5525 28.7564 27.6543 27.6546C28.7561 26.5528 29.375 25.0585 29.375 23.5003C29.375 21.9422 28.7561 20.4478 27.6543 19.3461C26.5525 18.2443 25.0582 17.6253 23.5 17.6253Z" fill="#005233"/>
</svg>
