<svg width="650" height="210" viewBox="0 0 650 210" fill="none" xmlns="http://www.w3.org/2000/svg">
<g clip-path="url(#clip0_62_60)">
<path d="M270.385 95.8179V8.2666H290.264L305.535 49.3847C306.51 51.9834 307.43 54.718 308.322 57.5974C309.213 60.4768 310.096 63.2839 310.987 66.0456H311.591C312.567 63.2929 313.486 60.4768 314.378 57.5974C315.26 54.718 316.115 51.9834 316.923 49.3847L331.953 8.2666H351.831V95.8179H335.473V59.3088C335.473 56.4746 335.594 53.3597 335.836 49.9732C336.077 46.5867 336.384 43.1821 336.746 39.7503C337.108 36.3276 337.452 33.267 337.777 30.5959H337.294L329.9 51.1504L316.078 87.8949H305.776L291.833 51.1504L284.681 30.5959H284.198C284.523 33.2761 284.839 36.3276 285.173 39.7503C285.498 43.173 285.796 46.5867 286.084 49.9732C286.362 53.3597 286.502 56.4746 286.502 59.3088V95.8179H270.385Z" fill="#005233"/>
<path d="M383.591 18.9065C380.442 18.9065 377.934 18.0644 376.076 16.3621C374.218 14.6689 373.289 12.3689 373.289 9.45326C373.289 6.5376 374.218 4.32822 376.076 2.59874C377.934 0.869265 380.442 0 383.591 0C386.582 0 389.043 0.869265 390.985 2.59874C392.926 4.32822 393.892 6.61909 393.892 9.45326C393.892 12.2874 392.926 14.6689 390.985 16.3621C389.043 18.0554 386.582 18.9065 383.591 18.9065ZM374.617 29.6546H392.434V95.8184H374.617V29.6546Z" fill="#005233"/>
<path d="M437.653 97.4752C431.996 97.4752 427.091 96.0988 422.93 93.3371C418.768 90.5844 415.554 86.6003 413.297 81.4028C411.03 76.2053 409.906 69.9847 409.906 62.7317C409.906 55.4788 411.253 49.403 413.966 44.2417C416.669 39.0805 420.208 35.0873 424.574 32.2531C428.94 29.4189 433.538 27.9973 438.387 27.9973C442.186 27.9973 445.4 28.6493 448.019 29.9441C450.648 31.239 453.175 32.9956 455.599 35.205L454.995 24.81V1.53906H472.812V95.8272H458.265L456.937 88.9727H456.454C453.946 91.336 451.075 93.3462 447.843 95.0032C444.61 96.6602 441.22 97.4842 437.662 97.4842M442.251 83.1776C444.675 83.1776 446.914 82.6433 448.976 81.5839C451.038 80.5245 453.035 78.7679 454.977 76.3231V47.257C452.961 45.446 450.871 44.1693 448.735 43.4177C446.589 42.6662 444.434 42.2949 442.251 42.2949C439.743 42.2949 437.421 43.0646 435.284 44.5949C433.148 46.1342 431.429 48.3979 430.138 51.386C428.847 54.3832 428.197 58.0866 428.197 62.4963C428.197 66.906 428.745 70.8901 429.831 73.9597C430.928 77.0293 432.516 79.3383 434.625 80.8686C436.724 82.4079 439.269 83.1685 442.26 83.1685" fill="#005233"/>
<path d="M522.499 97.4756C516.842 97.4756 511.528 96.0993 506.559 93.3376C501.589 90.5849 497.567 86.6189 494.502 81.4666C491.436 76.3054 489.894 70.0666 489.894 62.7412C489.894 55.4159 491.427 49.1771 494.502 44.0158C497.576 38.8545 501.589 34.8976 506.559 32.1449C511.528 29.3922 516.842 28.0068 522.499 28.0068C526.781 28.0068 530.859 28.7946 534.742 30.3702C538.615 31.9457 542.089 34.2094 545.164 37.1613C548.229 40.1132 550.663 43.7442 552.437 48.0362C554.212 52.3282 555.103 57.2359 555.103 62.7412C555.103 70.0666 553.571 76.3144 550.496 81.4666C547.421 86.6279 543.408 90.5849 538.439 93.3376C533.469 96.0902 528.156 97.4756 522.499 97.4756ZM522.499 83.2957C525.573 83.2957 528.174 82.4536 530.32 80.7513C532.457 79.0581 534.073 76.6766 535.169 73.607C536.265 70.5374 536.804 66.9155 536.804 62.7322C536.804 58.5488 536.256 54.9359 535.169 51.8664C534.082 48.7968 532.457 46.4153 530.32 44.713C528.174 43.0198 525.573 42.1777 522.499 42.1777C519.424 42.1777 516.823 43.0198 514.677 44.713C512.541 46.4063 510.925 48.7877 509.829 51.8664C508.742 54.9359 508.194 58.5579 508.194 62.7322C508.194 66.9065 508.742 70.5284 509.829 73.607C510.915 76.6766 512.532 79.0581 514.677 80.7513C516.823 82.4446 519.424 83.2957 522.499 83.2957Z" fill="#005233"/>
<path d="M572.307 95.8186V29.6548H586.853L588.191 41.3537H588.553C591.052 37.0255 594.006 33.7114 597.396 31.4296C600.796 29.1477 604.261 28.0068 607.819 28.0068C609.76 28.0068 611.311 28.1427 612.482 28.4234C613.652 28.695 614.73 29.03 615.696 29.4284L612.788 44.4323C611.497 44.1154 610.345 43.8619 609.333 43.6627C608.32 43.4725 607.048 43.3639 605.515 43.3639C602.932 43.3639 600.201 44.3508 597.331 46.3157C594.461 48.2806 592.055 51.6309 590.123 56.3576V95.8186H572.307Z" fill="#005233"/>
<path d="M636.549 18.9065C633.401 18.9065 630.892 18.0644 629.035 16.3621C627.177 14.6689 626.248 12.3689 626.248 9.45326C626.248 6.5376 627.177 4.32822 629.035 2.59874C630.892 0.869265 633.401 0 636.549 0C639.541 0 642.002 0.869265 643.944 2.59874C645.885 4.32822 646.851 6.61909 646.851 9.45326C646.851 12.2874 645.885 14.6689 643.944 16.3621C642.002 18.0554 639.541 18.9065 636.549 18.9065ZM627.576 29.6546H645.393V95.8184H627.576V29.6546Z" fill="#005233"/>
<path d="M341.771 210C337.814 210 334.108 209.321 330.652 207.972C327.197 206.623 324.159 204.594 321.531 201.896C318.902 199.198 316.84 195.884 315.335 191.972C313.83 188.06 313.087 183.56 313.087 178.489C313.087 173.419 313.849 168.909 315.381 164.97C316.905 161.032 319.013 157.681 321.698 154.92C324.382 152.167 327.494 150.066 331.033 148.636C334.572 147.205 338.316 146.48 342.273 146.48C346.23 146.48 349.862 147.268 353.002 148.835C356.141 150.41 358.705 152.239 360.684 154.34L354.154 162.109C352.575 160.57 350.828 159.329 348.933 158.388C347.038 157.446 344.902 156.984 342.524 156.984C339.356 156.984 336.514 157.826 333.996 159.51C331.479 161.195 329.51 163.603 328.098 166.745C326.686 169.887 325.98 173.663 325.98 178.082C325.98 182.501 326.64 186.367 327.977 189.536C329.305 192.705 331.2 195.15 333.662 196.853C336.124 198.564 338.994 199.415 342.273 199.415C344.985 199.415 347.41 198.854 349.528 197.722C351.646 196.59 353.531 195.141 355.166 193.376L361.873 200.982C359.272 203.961 356.299 206.206 352.965 207.718C349.63 209.231 345.896 209.991 341.762 209.991" fill="#005233"/>
<path d="M393.103 210C387.557 210 382.68 208.714 378.463 206.152C374.246 203.589 370.958 199.904 368.58 195.114C366.202 190.315 365.013 184.583 365.013 177.91C365.013 171.236 366.202 165.641 368.58 160.95C370.958 156.269 374.246 152.683 378.463 150.202C382.68 147.721 387.557 146.48 393.103 146.48C398.648 146.48 403.59 147.739 407.779 150.247C411.959 152.755 415.248 156.341 417.616 160.995C419.994 165.659 421.183 171.291 421.183 177.91C421.183 184.529 419.994 190.315 417.616 195.114C415.238 199.913 411.959 203.589 407.779 206.152C403.59 208.714 398.695 210 393.103 210ZM393.103 199.406C396.214 199.406 398.908 198.528 401.203 196.762C403.488 194.996 405.262 192.497 406.507 189.274C407.751 186.041 408.374 182.256 408.374 177.901C408.374 173.545 407.751 169.806 406.507 166.691C405.262 163.576 403.497 161.176 401.203 159.492C398.908 157.808 396.205 156.966 393.103 156.966C390 156.966 387.288 157.808 384.993 159.492C382.708 161.176 380.953 163.576 379.736 166.691C378.519 169.806 377.915 173.545 377.915 177.901C377.915 182.256 378.519 186.041 379.736 189.274C380.953 192.497 382.708 194.987 384.993 196.762C387.288 198.528 389.991 199.406 393.103 199.406Z" fill="#005233"/>
<path d="M436.798 208.841V121.29H454.735V194.191H491.223V208.841H436.798Z" fill="#005233"/>
<path d="M494.13 208.841L522.861 121.29H544.068L572.79 208.841H553.886L541.16 163.232C539.786 158.668 538.476 153.915 537.222 148.998C535.968 144.072 534.658 139.291 533.283 134.646H532.8C531.667 139.373 530.432 144.181 529.103 149.061C527.766 153.951 526.456 158.668 525.165 163.241L512.318 208.85H494.139L494.13 208.841ZM511.946 172.803H554.611V186.385H511.946V172.803Z" fill="#005233"/>
<path d="M583.342 208.841V121.29H613.039C619.179 121.29 624.697 121.96 629.583 123.3C634.469 124.64 638.352 126.886 641.213 130.037C644.083 133.188 645.513 137.48 645.513 142.913C645.513 145.593 645.012 148.21 643.999 150.764C642.987 153.326 641.593 155.59 639.819 157.555C638.045 159.529 635.862 160.986 633.28 161.928V162.399C638.129 163.504 642.123 165.767 645.281 169.19C648.43 172.613 650.009 177.249 650.009 183.071C650.009 188.894 648.495 193.72 645.467 197.541C642.439 201.362 638.314 204.196 633.103 206.043C627.892 207.891 621.966 208.823 615.343 208.823H583.342V208.841ZM601.279 156.966H611.822C617.479 156.966 621.594 155.925 624.186 153.833C626.768 151.751 628.069 148.971 628.069 145.503C628.069 141.645 626.731 138.884 624.065 137.236C621.399 135.579 617.358 134.755 611.943 134.755H601.279V156.966ZM601.279 195.368H613.764C619.904 195.368 624.567 194.281 627.762 192.117C630.958 189.953 632.546 186.585 632.546 182.012C632.546 177.756 630.948 174.668 627.762 172.74C624.567 170.811 619.904 169.851 613.764 169.851H601.279V195.368Z" fill="#005233"/>
<path d="M14.593 130.254L29.1861 132.508C27.6441 143.202 25.5169 153.697 22.8138 164.001C20.1107 174.315 16.9803 183.08 13.4319 190.306C12.503 189.708 11.1933 188.993 9.49336 188.16C7.79346 187.336 6.09357 186.548 4.39368 185.787C2.69379 185.036 1.22612 184.438 -0.00932312 183.985C3.84563 177.067 6.93887 168.827 9.25184 159.266C11.5648 149.713 13.339 140.042 14.5745 130.254M0.464418 100.898C10.4966 100.445 22.4237 99.8838 36.2458 99.2047C50.0678 98.5256 64.2336 97.8193 78.7431 97.0587V111.284C65.1532 112.189 51.6841 113.05 38.3265 113.883C24.9689 114.716 13.0418 115.431 2.54516 116.029L0.464418 100.898ZM2.54516 48.2984L11.5741 37.4597C15.7449 41.0726 19.9528 45.0567 24.1979 49.4212C28.443 53.7856 32.3444 58.0776 35.8928 62.2881C39.4412 66.5077 42.2186 70.3379 44.2343 73.7968L34.5087 86.4374C32.5023 82.8245 29.762 78.7589 26.2879 74.2495C22.8138 69.7312 18.996 65.2219 14.8253 60.7035C10.6545 56.1851 6.56731 52.0471 2.55445 48.2893M65.3111 26.8474L79.9042 33.6204C74.6559 41.8966 68.7852 50.7432 62.3015 60.1511C55.8178 69.5591 49.2876 78.6321 42.7295 87.3519C36.1622 96.0808 29.9478 103.687 24.0864 110.152L13.4319 104.284C17.7513 99.3134 22.3122 93.636 27.0961 87.2433C31.8799 80.8505 36.5895 74.1499 41.2247 67.1506C45.8599 60.1512 50.2629 53.188 54.4244 46.2701C58.5952 39.3522 62.2179 32.878 65.3111 26.8565M39.3762 1.11355L54.6659 6.76377C51.8885 12.3325 48.8417 18.1276 45.5162 24.1491C42.1908 30.1706 38.8746 36.0019 35.5584 41.643C32.2329 47.2842 29.1118 52.2191 26.1765 56.4296L14.1286 51.2321C17.0639 46.8677 20.1107 41.7517 23.2783 35.8751C26.4458 30.0076 29.4555 23.9861 32.3072 17.8107C35.159 11.6443 37.5184 6.0756 39.3669 1.10449M39.1439 107.671H54.4337V208.814H39.1439V107.671ZM56.2822 78.5506L69.0175 73.5885C72.2594 78.4057 75.3433 83.6756 78.2786 89.3893C81.214 95.1119 83.8706 100.644 86.2672 105.987C88.6638 111.329 90.4008 116.038 91.4784 120.094L77.582 126.415C76.6531 122.05 75.0739 117.124 72.8353 111.628C70.5966 106.141 68.0886 100.49 65.3111 94.6954C62.5337 88.9003 59.5148 83.5217 56.2729 78.5506M62.5337 133.188L75.269 129.575C78.2043 136.049 80.8238 143.085 83.1461 150.682C85.4591 158.288 87.001 164.87 87.7813 170.439L74.1172 174.731C73.6527 169.009 72.2965 162.281 70.0671 154.521C67.8285 146.77 65.3204 139.662 62.543 133.188M78.5109 181.051C85.1525 177.439 93.1411 172.694 102.486 166.826C111.831 160.959 121.287 155.01 130.855 148.988L136.419 162.534C128.235 168.257 119.819 173.971 111.171 179.693C102.523 185.416 94.5716 190.677 87.3169 195.494L78.5202 181.042L78.5109 181.051ZM86.8524 78.3242H214.242V92.7758H86.8524V78.3242ZM94.4973 112.642L107 104.737C111.636 109.4 116.261 114.598 120.897 120.312C125.532 126.034 128.848 131.15 130.855 135.669L117.887 144.244C115.881 139.879 112.639 134.727 108.161 128.778C103.684 122.838 99.1325 117.45 94.4973 112.633M99.3555 10.594H193.388V84.8709H176.715V24.8191H99.3555V10.594ZM104.455 44.2327H185.753V58.0051H104.455V44.2327ZM141.741 83.9654H157.951V190.749C157.951 194.96 157.486 198.274 156.557 200.682C155.628 203.091 153.622 204.893 150.538 206.097C147.761 207.301 144.054 208.053 139.419 208.352C134.793 208.651 129.145 208.805 122.513 208.805C122.197 206.695 121.547 204.25 120.544 201.47C119.531 198.681 118.574 196.164 117.646 193.909C122.281 194.054 126.563 194.136 130.502 194.136H138.258C140.571 194.136 141.732 193.004 141.732 190.749V83.9654H141.741ZM157.031 90.9648C158.424 99.3949 160.542 108.015 163.403 116.816C166.255 125.618 170.045 134.238 174.755 142.668C179.464 151.098 185.372 158.813 192.469 165.812C199.566 172.812 208.139 178.643 218.181 183.306C217.103 184.356 215.868 185.678 214.474 187.254C213.081 188.83 211.734 190.496 210.424 192.225C209.115 193.955 208.149 195.575 207.526 197.079C197.643 191.809 189.227 185.38 182.279 177.774C175.33 170.177 169.543 162.009 164.908 153.28C160.273 144.551 156.529 135.823 153.678 127.094C150.817 118.365 148.699 110.243 147.305 102.709L157.031 90.9648ZM199.649 103.388L212.849 111.972C208.372 117.541 203.43 123.227 198.024 129.013C192.617 134.808 187.676 139.734 183.198 143.8L172.312 136.121C175.395 133.26 178.6 129.91 181.926 126.07C185.242 122.231 188.484 118.319 191.651 114.335C194.81 110.351 197.475 106.702 199.64 103.388" fill="#005233"/>
</g>
<defs>
<clipPath id="clip0_62_60">
<rect width="650" height="210" fill="white"/>
</clipPath>
</defs>
</svg>
