<svg width="351" height="114" viewBox="0 0 351 114" fill="none" xmlns="http://www.w3.org/2000/svg">
<g clip-path="url(#clip0_17_108)">
<path d="M146.008 52.0157V4.48785H156.742L164.989 26.8091C165.515 28.2198 166.012 29.7043 166.494 31.2674C166.975 32.8306 167.452 34.3544 167.933 35.8536H168.259C168.786 34.3593 169.283 32.8306 169.764 31.2674C170.241 29.7043 170.702 28.2198 171.138 26.8091L179.254 4.48785H189.989V52.0157H181.156V32.1965C181.156 30.6579 181.221 28.967 181.351 27.1286C181.482 25.2902 181.647 23.442 181.843 21.579C182.038 19.721 182.224 18.0595 182.4 16.6094H182.139L178.146 27.7676L170.682 47.7147H165.119L157.59 27.7676L153.728 16.6094H153.467C153.642 18.0644 153.813 19.721 153.994 21.579C154.169 23.4371 154.33 25.2902 154.485 27.1286C154.636 28.967 154.711 30.6579 154.711 32.1965V52.0157H146.008Z" fill="#EFF3CE"/>
<path d="M207.139 10.2635C205.438 10.2635 204.084 9.8064 203.081 8.88229C202.078 7.96309 201.576 6.71456 201.576 5.13177C201.576 3.54898 202.078 2.3496 203.081 1.41074C204.084 0.471887 205.438 0 207.139 0C208.754 0 210.083 0.471887 211.132 1.41074C212.18 2.3496 212.702 3.59322 212.702 5.13177C212.702 6.67032 212.18 7.96309 211.132 8.88229C210.083 9.80148 208.754 10.2635 207.139 10.2635ZM202.293 16.0982H211.914V52.0157H202.293V16.0982Z" fill="#EFF3CE"/>
<path d="M236.333 52.9152C233.278 52.9152 230.629 52.1681 228.382 50.6689C226.135 49.1745 224.399 47.0117 223.18 44.1902C221.956 41.3687 221.349 37.9918 221.349 34.0545C221.349 30.1172 222.077 26.8189 223.542 24.0171C225.001 21.2152 226.912 19.0475 229.27 17.509C231.627 15.9704 234.11 15.1987 236.729 15.1987C238.78 15.1987 240.516 15.5526 241.93 16.2555C243.35 16.9584 244.714 17.912 246.024 19.1114L245.698 13.4684V0.835632H255.318V52.0206H247.463L246.746 48.2996H246.485C245.131 49.5825 243.581 50.6738 241.835 51.5733C240.09 52.4728 238.259 52.9201 236.338 52.9201M238.815 45.1537C240.125 45.1537 241.334 44.8637 242.447 44.2885C243.561 43.7134 244.639 42.7598 245.687 41.4327V25.6539C244.599 24.6708 243.47 23.9778 242.317 23.5698C241.158 23.1618 239.994 22.9602 238.815 22.9602C237.461 22.9602 236.207 23.3781 235.053 24.2088C233.9 25.0444 232.972 26.2733 232.275 27.8954C231.577 29.5224 231.226 31.5329 231.226 33.9267C231.226 36.3205 231.522 38.4834 232.109 40.1497C232.701 41.8161 233.559 43.0695 234.697 43.9002C235.831 44.7359 237.205 45.1488 238.82 45.1488" fill="#EFF3CE"/>
<path d="M282.149 52.9152C279.095 52.9152 276.225 52.1681 273.542 50.6689C270.858 49.1746 268.686 47.0216 267.031 44.2247C265.376 41.4228 264.543 38.0361 264.543 34.0594C264.543 30.0828 265.371 26.696 267.031 23.8942C268.691 21.0924 270.858 18.9443 273.542 17.45C276.225 15.9557 279.095 15.2036 282.149 15.2036C284.462 15.2036 286.664 15.6313 288.761 16.4866C290.852 17.3419 292.728 18.5707 294.389 20.1732C296.044 21.7756 297.358 23.7467 298.316 26.0767C299.274 28.4066 299.756 31.0708 299.756 34.0594C299.756 38.0361 298.928 41.4277 297.268 44.2247C295.608 47.0265 293.441 49.1746 290.757 50.6689C288.073 52.1632 285.204 52.9152 282.149 52.9152ZM282.149 45.2176C283.81 45.2176 285.214 44.7604 286.373 43.8363C287.527 42.9171 288.399 41.6244 288.991 39.958C289.583 38.2917 289.874 36.3255 289.874 34.0545C289.874 31.7836 289.578 29.8223 288.991 28.1559C288.404 26.4896 287.527 25.1968 286.373 24.2727C285.214 23.3535 283.81 22.8964 282.149 22.8964C280.489 22.8964 279.085 23.3535 277.926 24.2727C276.772 25.1919 275.899 26.4847 275.307 28.1559C274.721 29.8223 274.425 31.7885 274.425 34.0545C274.425 36.3205 274.721 38.2867 275.307 39.958C275.894 41.6244 276.767 42.9171 277.926 43.8363C279.085 44.7555 280.489 45.2176 282.149 45.2176Z" fill="#EFF3CE"/>
<path d="M309.046 52.0157V16.0982H316.901L317.623 22.449H317.819C319.168 20.0994 320.763 18.3004 322.594 17.0617C324.43 15.823 326.301 15.2036 328.222 15.2036C329.27 15.2036 330.108 15.2773 330.74 15.4297C331.372 15.5772 331.954 15.7591 332.476 15.9753L330.906 24.1203C330.208 23.9483 329.586 23.8106 329.04 23.7025C328.493 23.5993 327.806 23.5403 326.978 23.5403C325.584 23.5403 324.109 24.0761 322.559 25.1427C321.009 26.2094 319.71 28.0281 318.666 30.594V52.0157H309.046Z" fill="#EFF3CE"/>
<path d="M343.737 10.2635C342.036 10.2635 340.682 9.8064 339.679 8.88229C338.675 7.96309 338.174 6.71456 338.174 5.13177C338.174 3.54898 338.675 2.3496 339.679 1.41074C340.682 0.471887 342.036 0 343.737 0C345.352 0 346.681 0.471887 347.729 1.41074C348.778 2.3496 349.299 3.59322 349.299 5.13177C349.299 6.67032 348.778 7.96309 347.729 8.88229C346.681 9.80148 345.352 10.2635 343.737 10.2635ZM338.891 16.0982H348.512V52.0157H338.891V16.0982Z" fill="#EFF3CE"/>
<path d="M184.557 114C182.42 114 180.418 113.631 178.552 112.899C176.686 112.166 175.046 111.065 173.627 109.601C172.207 108.136 171.093 106.337 170.281 104.213C169.468 102.09 169.067 99.6467 169.067 96.8941C169.067 94.1414 169.478 91.6935 170.306 89.5552C171.129 87.417 172.267 85.5983 173.717 84.0991C175.166 82.6047 176.847 81.4644 178.758 80.6877C180.669 79.9111 182.691 79.5178 184.827 79.5178C186.964 79.5178 188.926 79.9455 190.621 80.7958C192.316 81.6511 193.701 82.6441 194.769 83.7845L191.243 88.002C190.39 87.1663 189.447 86.4929 188.424 85.9817C187.401 85.4705 186.247 85.2198 184.963 85.2198C183.252 85.2198 181.717 85.6769 180.358 86.5912C178.999 87.5055 177.935 88.813 177.173 90.5187C176.41 92.2244 176.029 94.2741 176.029 96.6729C176.029 99.0716 176.385 101.171 177.108 102.891C177.825 104.611 178.848 105.939 180.178 106.863C181.507 107.792 183.057 108.254 184.827 108.254C186.292 108.254 187.601 107.949 188.745 107.335C189.889 106.72 190.907 105.934 191.79 104.975L195.411 109.104C194.007 110.721 192.402 111.94 190.601 112.761C188.8 113.582 186.784 113.995 184.552 113.995" fill="#EFF3CE"/>
<path d="M212.275 114C209.281 114 206.647 113.302 204.37 111.911C202.093 110.52 200.317 108.519 199.033 105.919C197.749 103.314 197.107 100.202 197.107 96.5795C197.107 92.9568 197.749 89.919 199.033 87.3728C200.317 84.8315 202.093 82.8849 204.37 81.5381C206.647 80.1912 209.281 79.5178 212.275 79.5178C215.27 79.5178 217.939 80.2011 220.201 81.5627C222.458 82.9242 224.234 84.8708 225.513 87.3973C226.797 89.9288 227.439 92.9863 227.439 96.5795C227.439 100.173 226.797 103.314 225.513 105.919C224.229 108.524 222.458 110.52 220.201 111.911C217.939 113.302 215.295 114 212.275 114ZM212.275 108.249C213.956 108.249 215.41 107.772 216.649 106.814C217.883 105.855 218.841 104.498 219.514 102.748C220.186 100.994 220.522 98.9389 220.522 96.5746C220.522 94.2102 220.186 92.1801 219.514 90.4892C218.841 88.7983 217.888 87.4957 216.649 86.5814C215.41 85.6671 213.951 85.21 212.275 85.21C210.6 85.21 209.135 85.6671 207.896 86.5814C206.662 87.4957 205.714 88.7983 205.057 90.4892C204.4 92.1801 204.074 94.2102 204.074 96.5746C204.074 98.9389 204.4 100.994 205.057 102.748C205.714 104.498 206.662 105.85 207.896 106.814C209.135 107.772 210.595 108.249 212.275 108.249Z" fill="#EFF3CE"/>
<path d="M235.871 113.371V65.843H245.557V105.418H265.26V113.371H235.871Z" fill="#EFF3CE"/>
<path d="M266.83 113.371L282.345 65.843H293.797L309.306 113.371H299.099L292.227 88.6115C291.484 86.1341 290.777 83.5535 290.1 80.8844C289.423 78.2103 288.715 75.6149 287.973 73.0933H287.712C287.1 75.6592 286.433 78.2693 285.716 80.9188C284.993 83.5731 284.286 86.1341 283.589 88.6164L276.652 113.376H266.835L266.83 113.371ZM276.451 93.8072H299.49V101.18H276.451V93.8072Z" fill="#EFF3CE"/>
<path d="M315.005 113.371V65.843H331.041C334.357 65.843 337.336 66.2067 339.975 66.9342C342.613 67.6617 344.71 68.8807 346.255 70.5913C347.805 72.3019 348.577 74.6319 348.577 77.5811C348.577 79.0361 348.306 80.4567 347.76 81.8429C347.213 83.234 346.46 84.4628 345.502 85.5295C344.544 86.6011 343.366 87.3925 341.971 87.9037V88.1593C344.589 88.759 346.746 89.9878 348.452 91.8459C350.152 93.7039 351.005 96.2207 351.005 99.3813C351.005 102.542 350.187 105.162 348.552 107.236C346.917 109.311 344.69 110.849 341.876 111.852C339.062 112.855 335.861 113.361 332.285 113.361H315.005V113.371ZM324.691 85.21H330.384C333.439 85.21 335.661 84.6447 337.06 83.5092C338.455 82.3787 339.157 80.8696 339.157 78.987C339.157 76.893 338.435 75.3938 336.995 74.4991C335.556 73.5996 333.374 73.1523 330.449 73.1523H324.691V85.21ZM324.691 106.057H331.432C334.748 106.057 337.266 105.467 338.992 104.292C340.717 103.117 341.575 101.289 341.575 98.8062C341.575 96.4959 340.712 94.8198 338.992 93.7728C337.266 92.7258 334.748 92.2047 331.432 92.2047H324.691V106.057Z" fill="#EFF3CE"/>
<path d="M7.88021 70.7093L15.7605 71.9332C14.9278 77.7384 13.7791 83.4355 12.3194 89.0293C10.8598 94.628 9.16934 99.3862 7.2532 103.309C6.75159 102.984 6.04432 102.596 5.12638 102.144C4.20844 101.697 3.2905 101.269 2.37255 100.856C1.45461 100.448 0.662072 100.124 -0.00506592 99.8778C2.07661 96.1224 3.74696 91.6493 4.99596 86.4585C6.24497 81.2727 7.20304 76.0229 7.87018 70.7093M0.250754 54.7733C5.66812 54.5275 12.1088 54.2227 19.5727 53.8541C27.0366 53.4854 34.6861 53.102 42.5212 52.6891V60.4113C35.1827 60.9029 27.9094 61.3699 20.6963 61.8221C13.4832 62.2743 7.04252 62.6626 1.37436 62.987L0.250754 54.7733ZM1.37436 26.2192L6.24998 20.3354C8.5022 22.2966 10.7745 24.4595 13.0668 26.8287C15.3592 29.198 17.4659 31.5279 19.3821 33.8136C21.2982 36.1042 22.798 38.1835 23.8865 40.0612L18.6347 46.9232C17.5512 44.962 16.0715 42.7549 14.1954 40.307C12.3194 37.8542 10.2578 35.4062 8.00561 32.9534C5.75339 30.5006 3.54632 28.2542 1.37937 26.2143M35.268 14.5744L43.1482 18.2512C40.3142 22.7439 37.144 27.5464 33.6428 32.6536C30.1416 37.7608 26.6153 42.6861 23.0739 47.4197C19.5275 52.1582 16.1718 56.2872 13.0066 59.7969L7.2532 56.6117C9.58567 53.9131 12.0486 50.831 14.6318 47.3607C17.2151 43.8904 19.7583 40.2529 22.2613 36.4532C24.7643 32.6536 27.1419 28.8736 29.3891 25.1181C31.6414 21.3627 33.5976 17.8481 35.268 14.5793M21.2631 0.604586L29.5196 3.67185C28.0198 6.69488 26.3745 9.84079 24.5787 13.1096C22.783 16.3784 20.9922 19.544 19.2015 22.6063C17.4057 25.6687 15.7203 28.3476 14.1353 30.6333L7.6294 27.8118C9.21448 25.4425 10.8598 22.6653 12.5702 19.4751C14.2807 16.2899 15.9059 13.0211 17.4459 9.66875C18.9858 6.3213 20.2599 3.29827 21.2581 0.59967M21.1377 58.4501H29.3942V113.356H21.1377V58.4501ZM30.3924 42.6418L37.2694 39.9482C39.02 42.5632 40.6854 45.424 42.2704 48.5257C43.8555 51.6323 45.2901 54.6356 46.5843 57.5358C47.8784 60.4359 48.8164 62.992 49.3983 65.1941L41.8942 68.6251C41.3926 66.2559 40.5399 63.5818 39.331 60.5981C38.1221 57.6193 36.7678 54.5521 35.268 51.4062C33.7682 48.2602 32.138 45.3404 30.3873 42.6418M33.7682 72.3019L40.6452 70.3406C42.2303 73.8552 43.6448 77.6745 44.8989 81.7986C46.1479 85.9276 46.9805 89.5012 47.4019 92.5242L40.0232 94.8542C39.7724 91.7476 39.0401 88.0954 37.8362 83.8828C36.6273 79.6751 35.273 75.8165 33.7732 72.3019M42.3958 98.2852C45.9823 96.3239 50.2962 93.7482 55.3423 90.5629C60.3885 87.3777 65.4949 84.1482 70.6614 80.8794L73.6661 88.233C69.2469 91.3396 64.7023 94.4413 60.0324 97.5478C55.3624 100.654 51.0686 103.51 47.1511 106.125L42.4009 98.2803L42.3958 98.2852ZM46.9003 42.519H115.691V50.3641H46.9003V42.519ZM51.0285 61.1487L57.7801 56.8574C60.2832 59.3889 62.7812 62.2104 65.2842 65.3121C67.7872 68.4187 69.5779 71.1959 70.6614 73.6487L63.659 78.3037C62.5755 75.9344 60.8249 73.1375 58.4072 69.9081C55.9894 66.6835 53.5315 63.7588 51.0285 61.1437M53.6519 5.7511H104.43V46.0729H95.4258V13.4733H53.6519V5.7511ZM56.4057 24.0121H100.306V31.4886H56.4057V24.0121ZM76.5403 45.5813H85.2933V103.55C85.2933 105.835 85.0425 107.634 84.5409 108.942C84.0393 110.249 82.9558 111.228 81.2905 111.881C79.7907 112.535 77.7893 112.943 75.2862 113.105C72.7882 113.268 69.7385 113.351 66.157 113.351C65.9864 112.206 65.6353 110.879 65.0936 109.37C64.5468 107.856 64.0302 106.489 63.5286 105.265C66.0316 105.344 68.344 105.388 70.4708 105.388H74.6592C75.9082 105.388 76.5353 104.774 76.5353 103.55V45.5813H76.5403ZM84.7967 49.381C85.5491 53.9573 86.6928 58.6368 88.2378 63.4147C89.7777 68.1926 91.8243 72.8721 94.3674 77.4484C96.9106 82.0247 100.101 86.2127 103.933 90.0124C107.765 93.8121 112.395 96.9777 117.818 99.5091C117.236 100.079 116.569 100.797 115.816 101.652C115.064 102.508 114.336 103.412 113.629 104.351C112.922 105.29 112.4 106.17 112.064 106.986C106.727 104.125 102.182 100.635 98.4304 96.5058C94.6784 92.3817 91.5534 87.9479 89.0504 83.2094C86.5473 78.4708 84.5259 73.7323 82.9859 68.9938C81.441 64.2552 80.2973 59.8461 79.5449 55.7564L84.7967 49.381ZM107.81 56.125L114.938 60.7849C112.521 63.8079 109.852 66.8949 106.933 70.0359C104.013 73.1818 101.345 75.8558 98.927 78.0629L93.0482 73.8945C94.7135 72.3412 96.4441 70.5225 98.2398 68.4383C100.031 66.3542 101.781 64.2307 103.492 62.0679C105.197 59.905 106.637 57.9241 107.805 56.125" fill="#EFF3CE"/>
</g>
<defs>
<clipPath id="clip0_17_108">
<rect width="351" height="114" fill="white"/>
</clipPath>
</defs>
</svg>
